# xmcd
# 
# Track frame offsets:
#     150
#     24173
#     49760
# 
# Disc length: 893
# 
# Revision: 7
# Processed by: cddbd v1.5.2PL0 Copyright (c) Steve Scherf et al.
# Submitted via: BonkEnc v1.0
# 
DISCID=18037b03
DTITLE=GLAY - GLAY　鼓動
DYEAR=0
DGENRE=JPop
TTITLE0=鼓動
TTITLE1=僕達の勝敗
TTITLE2=棘
EXTD=
EXTT0=
EXTT1=
EXTT2=
PLAYORDER=
